# xmcd
#
# Track frame offsets:
#	150
#	26852
#	50314
#	82939
#	110115
#	134725
#	150201
#	187626
#	223850
#	247700
#	282123
#
# Disc length: 4252 seconds
#
# Revision: 0
# Processed by: cddbd v1.5.1PL2 Copyright (c) Steve Scherf et al.
# Submitted via: SynApp - FreeCDDB Version: 2.0
#
DISCID=8c109a0b
DTITLE=Aretha Franklin - Gospel
DYEAR=2003
DGENRE=Gospel
TTITLE0=01 Gospel - Oh Happy Days [con Mavis Staples] (3.10)
TTITLE1=Aretha Franklin - Give Yourself To Jesus
TTITLE2=03 Gospel - Precious Memories [con Rev. James Cleveland] (7.12)
TTITLE3=Aretha Franklin - What A Friend We Have In Jesus
TTITLE4=aretha franklin - bridge over troubled water
TTITLE5=Aretha Franklin - I'll Fly Away
TTITLE6=07 Gospel - Precious Lord, Take My Hand (8.16)
TTITLE7=08 Gospel - Amazing Grace (8.00)
TTITLE8=09 Gospel - God Will Take Care of You (5.16)
TTITLE9=10 Gospel - I've Been In The Storm Too Long (7.36)
TTITLE10=11 Gospel - Someday We'll All Be Free [Malcolm X soundtrack] (8.11)
EXTD=
EXTT0=
EXTT1=
EXTT2=
EXTT3=
EXTT4=
EXTT5=
EXTT6=
EXTT7=
EXTT8=
EXTT9=
EXTT10=
PLAYORDER=
